HIERARCHY
ROOT SpineBase
{
  OFFSET 0.000000 0.000000 0.000000
  CHANNELS 6 Xposition Yposition Zposition Zrotation Xrotation Yrotation
  JOINT SpineMid
  {
    OFFSET 0.000000 29.515823 0.000000
    CHANNELS 3 Zrotation Xrotation Yrotation
    JOINT SpineShoulder
    {
      OFFSET -0.075127 22.014785 -0.655621
      CHANNELS 3 Zrotation Xrotation Yrotation
      JOINT Neck
      {
        OFFSET -0.113702 7.295951 -0.518431
        CHANNELS 3 Zrotation Xrotation Yrotation
        JOINT Head
        {
          OFFSET -1.311887 10.525434 3.895602
          CHANNELS 3 Zrotation Xrotation Yrotation
          End Site
          {
            OFFSET 0 0 0
          }
        }
      }
      JOINT ShoulderLeft
      {
        OFFSET -3.690978 -3.668439 12.304480
        CHANNELS 3 Zrotation Xrotation Yrotation
        JOINT ElbowLeft
        {
          OFFSET -2.140940 -17.405598 -17.392672
          CHANNELS 3 Zrotation Xrotation Yrotation
          JOINT WristLeft
          {
            OFFSET -2.246321 -22.972441 -5.596028
            CHANNELS 3 Zrotation Xrotation Yrotation
            JOINT HandLeft
            {
              OFFSET -2.832836 -5.204448 0.799973
              CHANNELS 3 Zrotation Xrotation Yrotation
              JOINT HandTipLeft
              {
                OFFSET -3.078704 -5.868985 -0.638426
                CHANNELS 3 Zrotation Xrotation Yrotation
                End Site
                {
                  OFFSET 0 0 0
                }
              }
              JOINT ThumbLeft
              {
                OFFSET 3.363767 -0.584989 -1.755679
                CHANNELS 3 Zrotation Xrotation Yrotation
                End Site
                {
                  OFFSET 0 0 0
                }
              }
            }
          }
        }
      }
      JOINT ShoulderRight
      {
        OFFSET -3.063343 -3.825185 -10.424798
        CHANNELS 3 Zrotation Xrotation Yrotation
        JOINT ElbowRight
        {
          OFFSET -3.861648 -23.325721 -2.269710
          CHANNELS 3 Zrotation Xrotation Yrotation
          JOINT WristRight
          {
            OFFSET -6.037735 -22.031506 2.276131
            CHANNELS 3 Zrotation Xrotation Yrotation
            JOINT HandRight
            {
              OFFSET -0.383953 -6.781805 1.294636
              CHANNELS 3 Zrotation Xrotation Yrotation
              JOINT HandTipRight
              {
                OFFSET -1.973074 -6.169912 0.229318
                CHANNELS 3 Zrotation Xrotation Yrotation
                End Site
                {
                  OFFSET 0 0 0
                }
              }
              JOINT ThumbRight
              {
                OFFSET 0.876772 -1.964621 -0.500007
                CHANNELS 3 Zrotation Xrotation Yrotation
                End Site
                {
                  OFFSET 0 0 0
                }
              }
            }
          }
        }
      }
    }
  }
  JOINT HipLeft
  {
    OFFSET -0.647041 -0.308353 -1.600854
    CHANNELS 3 Zrotation Xrotation Yrotation
    JOINT KneeLeft
    {
      OFFSET 11.554399 -28.451930 9.790783
      CHANNELS 3 Zrotation Xrotation Yrotation
      JOINT AnkleLeft
      {
        OFFSET 9.540252 -32.893913 6.579403
        CHANNELS 3 Zrotation Xrotation Yrotation
        JOINT FootLeft
        {
          OFFSET -9.306585 -6.325067 -2.769682
          CHANNELS 3 Zrotation Xrotation Yrotation
          End Site
          {
            OFFSET 0 0 0
          }
        }
      }
    }
  }
  JOINT HipRight
  {
    OFFSET -0.696721 1.744292 -5.085557
    CHANNELS 3 Zrotation Xrotation Yrotation
    JOINT KneeRight
    {
      OFFSET 5.872072 -35.330699 5.773424
      CHANNELS 3 Zrotation Xrotation Yrotation
      JOINT AnkleRight
      {
        OFFSET 6.783453 -27.864169 2.224906
        CHANNELS 3 Zrotation Xrotation Yrotation
        JOINT FootRight
        {
          OFFSET -2.253344 -6.293162 0.343637
          CHANNELS 3 Zrotation Xrotation Yrotation
          End Site
          {
            OFFSET 0 0 0
          }
        }
      }
    }
  }
}
MOTION
Frames: 13
Frame Time: 0.033333
67.844018 69.763090 338.467616 -0.000000 0.000000 90.816799 -0.000000 0.000000 -90.816799 -0.000000 0.000000 0.000000 -0.000000 0.000000 0.000000 0.000000 0.000000 0.000000 -0.000000 0.000000 0.000000 -0.000000 0.000000 0.000000 -0.000000 0.000000 0.000000 -0.000000 0.000000 0.000000 0.000000 0.000000 0.000000 0.000000 0.000000 0.000000 -0.000000 0.000000 0.000000 -0.000000 0.000000 0.000000 -0.000000 0.000000 0.000000 -0.000000 0.000000 0.000000 0.000000 0.000000 0.000000 0.000000 0.000000 0.000000 -0.000000 0.000000 -90.816799 -0.000000 0.000000 0.000000 -0.000000 0.000000 0.000000 0.000000 0.000000 0.000000 -0.000000 0.000000 -90.816799 -0.000000 0.000000 0.000000 -0.000000 0.000000 0.000000 0.000000 0.000000 0.000000
67.787888 69.771012 338.491439 -0.106297 0.025522 91.240115 -0.027817 -0.105719 -91.240117 -0.000000 0.000000 0.000000 -0.000000 0.000000 0.000000 0.000000 0.000000 0.000000 -0.000000 0.000000 0.000000 -0.000000 0.000000 0.000000 -0.000000 0.000000 0.000000 -0.382944 1.593326 -0.786306 0.000000 0.000000 0.000000 0.000000 0.000000 0.000000 -0.000000 0.000000 0.000000 -0.000000 0.000000 0.000000 -0.000000 0.000000 0.000000 -0.023279 -1.119416 0.356742 0.000000 0.000000 0.000000 0.000000 0.000000 0.000000 -0.027817 -0.105719 -91.240117 -0.709125 0.610145 0.039010 1.094772 -1.336302 0.880459 0.000000 0.000000 0.000000 -0.027817 -0.105719 -91.240117 -0.000000 0.000000 0.000000 -2.447963 2.741272 -1.050152 0.000000 0.000000 0.000000
67.743677 69.777599 338.513189 -0.193131 0.046997 91.523738 -0.052116 -0.191813 -91.523746 -0.000000 0.000000 0.000000 0.391044 -0.934124 -0.258645 0.000000 0.000000 0.000000 -0.000000 0.000000 0.000000 -0.000000 0.000000 0.000000 0.529980 0.733679 -0.322412 -1.153443 2.076540 -1.080502 0.000000 0.000000 0.000000 0.000000 0.000000 0.000000 -0.000000 0.000000 0.000000 -0.000000 0.000000 0.000000 -0.015796 -0.936316 0.049788 0.028983 -1.112601 0.605360 0.000000 0.000000 0.000000 0.000000 0.000000 0.000000 -0.052116 -0.191813 -91.523746 -1.216792 1.006645 0.059553 1.952752 -2.299571 1.583654 0.000000 0.000000 0.000000 -0.052116 -0.191813 -91.523746 0.634142 -1.108655 -0.212685 -5.172751 6.147779 -1.526239 0.000000 0.000000 0.000000
67.711387 69.782852 338.532868 -0.260479 0.064418 91.676137 -0.072009 -0.258483 -91.676153 -0.000000 0.000000 0.000000 0.546075 -1.261083 -0.354521 0.000000 0.000000 0.000000 -0.321875 -0.754733 0.414939 0.327361 0.752370 -0.419208 0.664509 0.789330 -0.333487 -1.384550 2.882674 -1.504423 0.000000 0.000000 0.000000 0.000000 0.000000 0.000000 -0.000000 0.000000 0.000000 -0.000000 0.000000 0.000000 -0.027017 -1.391677 0.073138 0.133929 -1.404262 0.823912 0.000000 0.000000 0.000000 0.000000 0.000000 0.000000 0.809597 -0.384506 -91.276446 -1.618681 0.314492 -0.362455 2.566523 -2.888268 2.095881 0.000000 0.000000 0.000000 -0.072009 -0.258483 -91.676153 0.866267 -1.520937 -0.288782 -7.164553 8.461767 -1.945930 0.000000 0.000000 0.000000
67.691017 69.786771 338.550475 -0.308321 0.077781 91.702167 -0.086905 -0.305875 -91.702190 -0.000000 0.000000 0.000000 0.674491 -1.493993 -0.428821 0.000000 0.000000 0.000000 -0.299758 -0.756886 0.393124 0.304971 0.754801 -0.397113 0.711015 0.636685 -0.242242 -1.395653 3.552128 -1.861563 0.000000 0.000000 0.000000 0.000000 0.000000 0.000000 -0.000000 0.000000 0.000000 -0.000000 0.000000 0.000000 -0.040545 -1.841727 0.095592 0.295991 -1.524681 0.988207 0.000000 0.000000 0.000000 0.000000 0.000000 0.000000 0.948029 -0.474759 -91.224229 -1.755943 0.126983 -0.474756 2.929161 -3.100588 2.406971 0.000000 0.000000 0.000000 -0.086905 -0.305875 -91.702190 1.044186 -1.841469 -0.346962 -8.819199 10.314620 -2.222303 0.000000 0.000000 0.000000
67.682566 69.789356 338.566010 -0.336643 0.087083 91.603364 -0.096468 -0.334075 -91.603390 -0.000000 0.000000 0.000000 0.776521 -1.632683 -0.481983 0.000000 0.000000 0.000000 -0.000000 0.000000 0.000000 -0.000000 0.000000 0.000000 -0.000000 0.000000 0.000000 -0.519481 4.371807 -2.203440 0.000000 0.000000 0.000000 0.000000 0.000000 0.000000 -0.000000 0.000000 0.000000 -0.000000 0.000000 0.000000 -0.056474 -2.288813 0.117239 0.514228 -1.475850 1.098357 0.000000 0.000000 0.000000 0.000000 0.000000 0.000000 1.024444 -0.544349 -91.074391 -1.689549 -0.216276 -0.582421 3.034417 -2.933741 2.510364 0.000000 0.000000 0.000000 -0.096468 -0.334075 -91.603390 1.169306 -2.072081 -0.388453 -10.168249 11.740222 -2.400142 0.000000 0.000000 0.000000
67.684750 69.787585 338.573801 -0.356965 0.097955 91.187975 -0.105335 -0.354857 -91.187996 -0.584598 0.654203 -0.028021 1.513806 -2.362152 -0.499589 0.000000 0.000000 0.000000 0.584956 -0.653883 0.034697 -0.000000 0.000000 0.000000 -0.000000 0.000000 0.000000 1.032557 3.094824 -1.767091 0.000000 0.000000 0.000000 0.000000 0.000000 0.000000 1.355607 -1.248073 0.071049 -0.769905 0.595032 -0.019564 -0.262337 -2.783168 0.100668 0.297239 -0.511272 0.939809 0.000000 0.000000 0.000000 0.000000 0.000000 0.000000 0.825565 -0.861795 -90.627515 -1.670810 -0.746922 -0.756107 3.348521 -1.980083 2.009255 0.000000 0.000000 0.000000 -0.105335 -0.354857 -91.187996 1.114084 -2.026960 -0.383389 -10.107677 11.511919 -2.364235 0.000000 0.000000 0.000000
67.704978 69.777262 338.588782 -0.347099 0.098971 90.846864 -0.104090 -0.345598 -90.846878 -0.619646 0.667007 -0.030044 1.652202 -2.380586 -0.533056 0.000000 0.000000 0.000000 0.620037 -0.666643 0.037258 -0.000000 0.000000 0.000000 0.092991 -1.209344 0.672756 0.870448 4.332567 -2.462001 0.000000 0.000000 0.000000 0.000000 0.000000 0.000000 1.450889 -1.382013 0.089939 -0.829736 0.716528 -0.032639 -0.183627 -3.201869 0.140373 0.779385 -0.173888 0.935558 0.000000 0.000000 0.000000 0.000000 0.000000 0.000000 0.786568 -0.869334 -90.296479 -1.213259 -1.285712 -0.812267 2.928263 -1.361214 1.962462 0.000000 0.000000 0.000000 -0.104090 -0.345598 -90.846878 1.176452 -2.157202 -0.407503 -11.118635 12.428122 -2.460131 0.000000 0.000000 0.000000
67.737597 69.748248 338.598957 -0.305552 0.095467 90.561754 -0.098458 -0.304601 -90.561761 -0.602831 0.634630 -0.029621 1.643453 -2.153888 -0.514552 0.000000 0.000000 0.000000 1.118618 0.292601 -0.587083 -0.505934 -0.932105 0.620803 -0.089319 -2.976186 1.597125 0.115552 5.793100 -3.058416 0.000000 0.000000 0.000000 0.000000 0.000000 0.000000 1.508760 -1.431271 0.096726 -1.121479 1.574670 -0.268556 -0.057452 -4.671422 0.386939 2.500003 -0.120025 1.124230 0.000000 0.000000 0.000000 0.000000 0.000000 0.000000 0.837584 -0.626736 -90.064225 -0.321045 -0.936390 -0.492552 2.112768 -2.189292 2.422429 0.000000 0.000000 0.000000 -0.098458 -0.304601 -90.561761 1.329882 -2.371357 -0.441683 -13.594686 14.657733 -2.690783 0.000000 0.000000 0.000000
67.760408 69.733526 338.623219 -0.260916 0.052125 90.214492 -0.053101 -0.260719 -90.214494 -0.000000 0.000000 0.000000 0.909018 -1.064019 -0.461756 0.000000 0.000000 0.000000 0.854508 1.397364 -1.024624 -0.829638 -1.412269 1.003978 -0.227630 -4.223491 2.241136 0.481758 6.680100 -3.564223 0.000000 0.000000 0.000000 0.000000 0.000000 0.000000 0.968704 -0.831977 0.050617 -1.186828 1.620779 -0.270490 -0.032129 -4.876371 0.406122 4.252071 0.858706 0.826580 0.000000 0.000000 0.000000 0.000000 0.000000 0.000000 0.955819 -0.356448 -89.766336 0.018951 -1.843458 -0.657121 1.492668 -1.684596 3.332140 0.000000 0.000000 0.000000 -0.053101 -0.260719 -90.214494 1.437341 -2.512829 -0.463310 -14.565916 15.530532 -2.721682 0.000000 0.000000 0.000000
67.781616 69.738777 338.632111 -0.212897 0.041860 89.853235 -0.041314 -0.213003 -89.853234 -0.000000 0.000000 0.000000 0.750006 -0.807586 -0.373633 0.000000 0.000000 0.000000 1.137937 1.752976 -1.351109 -1.096822 -1.778986 1.316669 -0.110259 -5.093719 2.731909 0.540687 7.148774 -3.867394 0.000000 0.000000 0.000000 0.000000 0.000000 0.000000 0.955365 -0.798276 0.045946 -1.181676 1.566744 -0.261848 0.082413 -4.665347 0.416714 3.178304 0.587581 0.863346 0.000000 0.000000 0.000000 0.000000 0.000000 0.000000 1.030999 -0.059166 -89.465585 0.143865 -1.073694 -0.383754 1.067557 -3.584026 4.974404 0.000000 0.000000 0.000000 -0.041314 -0.213003 -89.853234 1.114801 -2.153420 -0.412736 -13.578863 13.603821 -2.550668 0.000000 0.000000 0.000000
67.799892 69.730404 338.651004 -0.169459 0.014731 89.733958 -0.013944 -0.169526 -89.733957 -0.000000 0.000000 0.000000 0.598456 -0.559326 -0.288625 0.000000 0.000000 0.000000 1.320906 1.875416 -1.549072 -0.550011 -1.567032 1.318920 -0.656378 -6.332624 3.464900 -0.280502 8.254730 -4.280874 0.000000 0.000000 0.000000 0.000000 0.000000 0.000000 0.853517 -0.665886 0.032206 -0.853200 0.666292 -0.022285 0.254294 -3.900948 0.276380 2.472190 0.831703 0.714142 0.000000 0.000000 0.000000 0.000000 0.000000 0.000000 1.319759 0.441500 -89.400405 1.418691 -2.441056 -0.454573 -1.590861 -1.153953 3.794765 0.000000 0.000000 0.000000 0.925737 -0.366001 -89.540518 0.770932 -2.920132 -0.560055 -12.769182 13.030145 -2.577591 0.000000 0.000000 0.000000
67.784063 69.744178 338.700174 -0.179109 -0.065707 90.291139 0.064796 -0.179440 -90.291141 -0.000000 0.000000 0.000000 -0.000000 0.000000 0.000000 0.000000 0.000000 0.000000 1.406474 1.569763 -1.598295 -0.588794 -1.313212 1.362520 -0.418035 -6.388714 3.596079 -0.433323 8.923213 -4.680145 0.000000 0.000000 0.000000 0.000000 0.000000 0.000000 0.821553 -0.629787 0.028887 -1.204139 1.329454 -0.244431 0.444624 -4.847769 0.477694 1.605739 1.323282 0.647950 0.000000 0.000000 0.000000 0.000000 0.000000 0.000000 1.603033 0.680074 -89.970919 2.323791 -3.060938 -0.400755 -2.683246 0.012876 2.882415 0.000000 0.000000 0.000000 1.201346 -0.497289 -90.043976 0.662237 -3.097277 -0.603666 -11.797345 13.015570 -2.669489 0.000000 0.000000 0.000000
